<!-- icon666.com - MILLIONS vector ICONS FREE --><svg version="1.1" id="Capa_1" xmlns="http://www.w3.org/2000/svg" xmlns:xlink="http://www.w3.org/1999/xlink" x="0px" y="0px" viewBox="0 0 511.906 511.906" style="enable-background:new 0 0 511.906 511.906;" xml:space="preserve"><polygon style="fill:#5C9EFF;" points="499.953,327.914 499.953,471.914 467.953,503.914 467.953,359.914 "></polygon><polygon style="fill:#94C1FF;" points="411.953,327.914 499.953,327.914 467.953,359.914 323.953,359.914 355.953,327.914 "></polygon><polygon style="fill:#D7E9FF;" points="467.953,359.914 467.953,503.914 323.953,503.914 323.953,415.914 323.953,359.914 "></polygon><polygon style="fill:#5C9EFF;" points="499.953,7.994 499.953,151.994 467.953,183.994 467.953,39.994 "></polygon><polygon style="fill:#94C1FF;" points="499.953,7.994 467.953,39.994 323.953,39.994 355.953,7.994 "></polygon><polygon style="fill:#D7E9FF;" points="467.953,39.994 467.953,183.994 411.953,183.994 323.953,183.994 323.953,95.914 323.953,39.994 "></polygon><polygon style="fill:#94C1FF;" points="187.953,7.994 155.953,39.994 11.953,39.994 43.953,7.994 "></polygon><polygon style="fill:#5C9EFF;" points="187.953,95.914 187.953,151.994 155.953,183.994 155.953,39.994 187.953,7.994 "></polygon><polygon style="fill:#94C1FF;" points="99.953,327.914 187.953,327.914 155.953,359.914 11.953,359.914 43.953,327.914 "></polygon><polygon style="fill:#5C9EFF;" points="187.953,415.914 187.953,471.914 155.953,503.914 155.953,359.914 187.953,327.914 "></polygon><g><rect x="11.953" y="359.914" style="fill:#D7E9FF;" width="144" height="144"></rect><polygon style="fill:#D7E9FF;" points="155.953,39.994 155.953,183.994 99.953,183.994 11.953,183.994 11.953,39.994 "></polygon></g><g><path style="fill:#116FFF;" d="M155.977,192.002h-144c-4.424,0-8-3.576-8-8v-144c0-4.424,3.576-8,8-8h144c4.424,0,8,3.576,8,8v144 C163.977,188.426,160.401,192.002,155.977,192.002z M19.977,176.002h128v-128h-128C19.977,48.002,19.977,176.002,19.977,176.002z"></path><path style="fill:#116FFF;" d="M187.977,160.002c-4.424,0-8-3.576-8-8v-136h-136c-4.424,0-8-3.576-8-8s3.576-8,8-8h144 c4.424,0,8,3.576,8,8v144C195.977,156.426,192.401,160.002,187.977,160.002z"></path><path style="fill:#116FFF;" d="M11.977,48.002c-2.048,0-4.096-0.784-5.656-2.344c-3.128-3.128-3.128-8.184,0-11.312l32-32 c3.128-3.128,8.184-3.128,11.312,0s3.128,8.184,0,11.312l-32,32C16.073,47.218,14.025,48.002,11.977,48.002z"></path><path style="fill:#116FFF;" d="M155.977,192.002c-2.048,0-4.096-0.784-5.656-2.344c-3.128-3.128-3.128-8.184,0-11.312l32-32 c3.128-3.128,8.184-3.128,11.312,0s3.128,8.184,0,11.312l-32,32C160.073,191.218,158.025,192.002,155.977,192.002z"></path><path style="fill:#116FFF;" d="M155.977,48.002c-2.048,0-4.096-0.784-5.656-2.344c-3.128-3.128-3.128-8.184,0-11.312l32-32 c3.128-3.128,8.184-3.128,11.312,0s3.128,8.184,0,11.312l-32,32C160.073,47.218,158.025,48.002,155.977,48.002z"></path><path style="fill:#116FFF;" d="M155.977,511.906h-144c-4.424,0-8-3.576-8-8v-144c0-4.424,3.576-8,8-8h144c4.424,0,8,3.576,8,8v144 C163.977,508.33,160.401,511.906,155.977,511.906z M19.977,495.906h128v-128h-128C19.977,367.906,19.977,495.906,19.977,495.906z"></path><path style="fill:#116FFF;" d="M187.977,479.906c-4.424,0-8-3.576-8-8v-136h-136c-4.424,0-8-3.576-8-8s3.576-8,8-8h144 c4.424,0,8,3.576,8,8v144C195.977,476.33,192.401,479.906,187.977,479.906z"></path><path style="fill:#116FFF;" d="M11.977,367.906c-2.048,0-4.096-0.784-5.656-2.344c-3.128-3.128-3.128-8.184,0-11.312l32-32 c3.128-3.128,8.184-3.128,11.312,0s3.128,8.184,0,11.312l-32,32C16.073,367.122,14.025,367.906,11.977,367.906z"></path><path style="fill:#116FFF;" d="M155.977,511.906c-2.048,0-4.096-0.784-5.656-2.344c-3.128-3.128-3.128-8.184,0-11.312l32-32 c3.128-3.128,8.184-3.128,11.312,0s3.128,8.184,0,11.312l-32,32C160.073,511.122,158.025,511.906,155.977,511.906z"></path><path style="fill:#116FFF;" d="M155.977,367.906c-2.048,0-4.096-0.784-5.656-2.344c-3.128-3.128-3.128-8.184,0-11.312l32-32 c3.128-3.128,8.184-3.128,11.312,0s3.128,8.184,0,11.312l-32,32C160.073,367.122,158.025,367.906,155.977,367.906z"></path><path style="fill:#116FFF;" d="M99.977,351.906c-4.424,0-8-3.576-8-8v-56c0-4.424,3.576-8,8-8s8,3.576,8,8v56 C107.977,348.33,104.401,351.906,99.977,351.906z"></path><path style="fill:#116FFF;" d="M99.977,311.906c-17.648,0-32-14.352-32-32v-32c0-17.648,14.352-32,32-32s32,14.352,32,32v32 C131.977,297.554,117.625,311.906,99.977,311.906z M99.977,231.906c-8.824,0-16,7.176-16,16v32c0,8.824,7.176,16,16,16 s16-7.176,16-16v-32C115.977,239.09,108.793,231.906,99.977,231.906z"></path><path style="fill:#116FFF;" d="M99.977,247.906c-4.424,0-8-3.576-8-8v-48c0-4.424,3.576-8,8-8s8,3.576,8,8v48 C107.977,244.33,104.401,247.906,99.977,247.906z"></path><path style="fill:#116FFF;" d="M227.929,423.906h-56c-4.424,0-8-3.576-8-8s3.576-8,8-8h56c4.424,0,8,3.576,8,8 S232.353,423.906,227.929,423.906z"></path><path style="fill:#116FFF;" d="M267.929,447.906h-32c-17.648,0-32-14.352-32-32s14.352-32,32-32h32c17.648,0,32,14.352,32,32 S285.577,447.906,267.929,447.906z M235.929,399.906c-8.824,0-16,7.176-16,16s7.176,16,16,16h32c8.824,0,16-7.176,16-16 s-7.176-16-16-16H235.929z"></path><path style="fill:#116FFF;" d="M323.929,423.906h-48c-4.424,0-8-3.576-8-8s3.576-8,8-8h48c4.424,0,8,3.576,8,8 S328.353,423.906,323.929,423.906z"></path><path style="fill:#116FFF;" d="M227.929,103.906h-56c-4.424,0-8-3.576-8-8s3.576-8,8-8h56c4.424,0,8,3.576,8,8 S232.353,103.906,227.929,103.906z"></path><path style="fill:#116FFF;" d="M267.929,127.906h-32c-17.648,0-32-14.352-32-32s14.352-32,32-32h32c17.648,0,32,14.352,32,32 S285.577,127.906,267.929,127.906z M235.929,79.906c-8.824,0-16,7.176-16,16s7.176,16,16,16h32c8.824,0,16-7.176,16-16 s-7.176-16-16-16H235.929z"></path><path style="fill:#116FFF;" d="M323.929,103.906h-48c-4.424,0-8-3.576-8-8s3.576-8,8-8h48c4.424,0,8,3.576,8,8 S328.353,103.906,323.929,103.906z"></path><path style="fill:#116FFF;" d="M467.929,192.002h-144c-4.424,0-8-3.576-8-8v-144c0-4.424,3.576-8,8-8h144c4.424,0,8,3.576,8,8v144 C475.929,188.426,472.353,192.002,467.929,192.002z M331.929,176.002h128v-128h-128V176.002z"></path><path style="fill:#116FFF;" d="M499.929,160.002c-4.424,0-8-3.576-8-8v-136h-136c-4.424,0-8-3.576-8-8s3.576-8,8-8h144 c4.424,0,8,3.576,8,8v144C507.929,156.426,504.353,160.002,499.929,160.002z"></path><path style="fill:#116FFF;" d="M323.929,48.002c-2.048,0-4.096-0.784-5.656-2.344c-3.128-3.128-3.128-8.184,0-11.312l32-32 c3.128-3.128,8.184-3.128,11.312,0s3.128,8.184,0,11.312l-32,32C328.025,47.218,325.977,48.002,323.929,48.002z"></path><path style="fill:#116FFF;" d="M467.929,192.002c-2.048,0-4.096-0.784-5.656-2.344c-3.128-3.128-3.128-8.184,0-11.312l32-32 c3.128-3.128,8.184-3.128,11.312,0s3.128,8.184,0,11.312l-32,32C472.025,191.218,469.977,192.002,467.929,192.002z"></path><path style="fill:#116FFF;" d="M467.929,48.002c-2.048,0-4.096-0.784-5.656-2.344c-3.128-3.128-3.128-8.184,0-11.312l32-32 c3.128-3.128,8.184-3.128,11.312,0s3.128,8.184,0,11.312l-32,32C472.025,47.218,469.977,48.002,467.929,48.002z"></path><path style="fill:#116FFF;" d="M467.929,511.906h-144c-4.424,0-8-3.576-8-8v-144c0-4.424,3.576-8,8-8h144c4.424,0,8,3.576,8,8v144 C475.929,508.33,472.353,511.906,467.929,511.906z M331.929,495.906h128v-128h-128V495.906z"></path><path style="fill:#116FFF;" d="M499.929,479.906c-4.424,0-8-3.576-8-8v-136h-136c-4.424,0-8-3.576-8-8s3.576-8,8-8h144 c4.424,0,8,3.576,8,8v144C507.929,476.33,504.353,479.906,499.929,479.906z"></path><path style="fill:#116FFF;" d="M323.929,367.906c-2.048,0-4.096-0.784-5.656-2.344c-3.128-3.128-3.128-8.184,0-11.312l32-32 c3.128-3.128,8.184-3.128,11.312,0s3.128,8.184,0,11.312l-32,32C328.025,367.122,325.977,367.906,323.929,367.906z"></path><path style="fill:#116FFF;" d="M467.929,511.906c-2.048,0-4.096-0.784-5.656-2.344c-3.128-3.128-3.128-8.184,0-11.312l32-32 c3.128-3.128,8.184-3.128,11.312,0s3.128,8.184,0,11.312l-32,32C472.025,511.122,469.977,511.906,467.929,511.906z"></path><path style="fill:#116FFF;" d="M467.929,367.906c-2.048,0-4.096-0.784-5.656-2.344c-3.128-3.128-3.128-8.184,0-11.312l32-32 c3.128-3.128,8.184-3.128,11.312,0s3.128,8.184,0,11.312l-32,32C472.025,367.122,469.977,367.906,467.929,367.906z"></path><path style="fill:#116FFF;" d="M411.929,351.906c-4.424,0-8-3.576-8-8v-56c0-4.424,3.576-8,8-8s8,3.576,8,8v56 C419.929,348.33,416.353,351.906,411.929,351.906z"></path><path style="fill:#116FFF;" d="M411.929,311.906c-17.648,0-32-14.352-32-32v-32c0-17.648,14.352-32,32-32s32,14.352,32,32v32 C443.929,297.554,429.577,311.906,411.929,311.906z M411.929,231.906c-8.824,0-16,7.176-16,16v32c0,8.824,7.176,16,16,16 s16-7.176,16-16v-32C427.929,239.09,420.753,231.906,411.929,231.906z"></path><path style="fill:#116FFF;" d="M411.929,247.906c-4.424,0-8-3.576-8-8v-48c0-4.424,3.576-8,8-8s8,3.576,8,8v48 C419.929,244.33,416.353,247.906,411.929,247.906z"></path></g></svg>